<?xml version="1.0" standalone="yes"?>

<svg version="1.1" viewBox="0.0 0.0 600.0472440944882 525.490813648294" fill="none" stroke="none" stroke-linecap="square" stroke-miterlimit="10" xmlns="http://www.w3.org/2000/svg" xmlns:xlink="http://www.w3.org/1999/xlink"><clipPath id="p.0"><path d="m0 0l600.04724 0l0 525.4908l-600.04724 0l0 -525.4908z" clip-rule="nonzero"></path></clipPath><g clip-path="url(#p.0)"><path fill="#000000" fill-opacity="0.0" d="m0 0l600.04724 0l0 525.4908l-600.04724 0z" fill-rule="evenodd"></path><path fill="#d9ead3" d="m62.9163 187.49348l0 0c-7.6409416 -25.68042 6.9830666 -52.692276 32.66364 -60.332703l185.98958 -55.33512l0 0c12.332245 -3.6690598 25.617004 -2.2889023 36.931824 3.8368378c11.314789 6.1257477 19.732788 16.4953 23.4021 28.827469l81.67966 274.51685c7.64093 25.68039 -6.9830627 52.69226 -32.663635 60.332703l-185.98958 55.335114c-25.680573 7.6404114 -52.692993 -6.9838867 -60.33394 -32.664307z" fill-rule="evenodd"></path><path stroke="#6aa84f" stroke-width="8.0" stroke-linejoin="round" stroke-linecap="butt" d="m62.9163 187.49348l0 0c-7.6409416 -25.68042 6.9830666 -52.692276 32.66364 -60.332703l185.98958 -55.33512l0 0c12.332245 -3.6690598 25.617004 -2.2889023 36.931824 3.8368378c11.314789 6.1257477 19.732788 16.4953 23.4021 28.827469l81.67966 274.51685c7.64093 25.68039 -6.9830627 52.69226 -32.663635 60.332703l-185.98958 55.335114c-25.680573 7.6404114 -52.692993 -6.9838867 -60.33394 -32.664307z" fill-rule="evenodd"></path><path fill="#b6d7a8" d="m87.888695 196.11523l0 0c-6.3473206 -21.765503 6.151207 -44.556732 27.916245 -50.90564l157.63162 -45.981453l0 0c10.451935 -3.048851 21.686646 -1.8207245 31.232605 3.4142075c9.545959 5.234932 16.621246 14.047844 19.669312 24.500008l51.443573 176.40427c6.3473206 21.765503 -6.1512146 44.556732 -27.91626 50.90564l-157.6316 45.981445c-21.765045 6.3489075 -44.55461 -6.148712 -50.90193 -27.914215z" fill-rule="evenodd"></path><path fill="#fce5cd" d="m140.31775 148.15776l0 0c-0.8891449 -26.778107 20.098038 -49.20639 46.87616 -50.09498l193.9385 -6.435524l0 0c12.859314 -0.42671967 25.361542 4.2723846 34.75638 13.063545c9.394806 8.791168 14.912628 20.95427 15.33963 33.813576l9.504639 286.25085c0.88912964 26.778107 -20.098053 49.20639 -46.87616 50.09497l-193.9385 6.435547c-26.778137 0.8885803 -49.20688 -20.09903 -50.09601 -46.877136z" fill-rule="evenodd"></path><path stroke="#e69138" stroke-width="8.0" stroke-linejoin="round" stroke-linecap="butt" d="m140.31775 148.15776l0 0c-0.8891449 -26.778107 20.098038 -49.20639 46.87616 -50.09498l193.9385 -6.435524l0 0c12.859314 -0.42671967 25.361542 4.2723846 34.75638 13.063545c9.394806 8.791168 14.912628 20.95427 15.33963 33.813576l9.504639 286.25085c0.88912964 26.778107 -20.098053 49.20639 -46.87616 50.09497l-193.9385 6.435547c-26.778137 0.8885803 -49.20688 -20.09903 -50.09601 -46.877136z" fill-rule="evenodd"></path><path fill="#f9cb9c" d="m162.29292 162.8219l0 0c-0.62901306 -22.663239 17.233215 -41.546677 39.896423 -42.177338l164.13646 -4.5674896l0 0c10.88324 -0.30285645 21.440735 3.7300568 29.349945 11.211548c7.90921 7.481491 12.522247 17.798706 12.82431 28.681976l5.0979614 183.68025c0.6290283 22.663239 -17.233215 41.54669 -39.896423 42.177338l-164.13644 4.567505c-22.663193 0.63064575 -41.545258 -17.230286 -42.17427 -39.893524z" fill-rule="evenodd"></path><path fill="#fff2cc" d="m269.2073 102.04288l0 0c12.755951 -23.561989 42.197235 -32.32161 65.75897 -19.56517l170.64395 92.38753l0 0c11.314758 6.1258545 19.732666 16.49562 23.401917 28.82808c3.6692505 12.3324585 2.2893066 25.61737 -3.8363647 36.932236l-136.35776 251.87137c-12.755951 23.561981 -42.197266 32.321625 -65.75897 19.565155l-170.64397 -92.38751c-23.561722 -12.756439 -32.321526 -42.198334 -19.565567 -65.760315z" fill-rule="evenodd"></path><path stroke="#f1c232" stroke-width="8.0" stroke-linejoin="round" stroke-linecap="butt" d="m269.2073 102.04288l0 0c12.755951 -23.561989 42.197235 -32.32161 65.75897 -19.56517l170.64395 92.38753l0 0c11.314758 6.1258545 19.732666 16.49562 23.401917 28.82808c3.6692505 12.3324585 2.2893066 25.61737 -3.8363647 36.932236l-136.35776 251.87137c-12.755951 23.561981 -42.197266 32.321625 -65.75897 19.565155l-170.64397 -92.38751c-23.561722 -12.756439 -32.321526 -42.198334 -19.565567 -65.760315z" fill-rule="evenodd"></path><path fill="#ffe599" d="m280.76907 125.797745l0 0c10.902405 -19.878952 35.856262 -27.157059 55.735992 -16.256104l143.97757 78.94934l0 0c9.5466 5.2348175 16.622375 14.047455 19.670776 24.499237c3.0484009 10.451767 1.8196716 21.686508 -3.4158325 31.232727l-88.36145 161.1143c-10.902405 19.878937 -35.856262 27.157043 -55.736023 16.256104l-143.97755 -78.94934c-19.879745 -10.90097 -27.157318 -35.853027 -16.254913 -55.731964z" fill-rule="evenodd"></path><path fill="#fff2cc" d="m90.00968 43.7718l0 0c1.7453156 -6.6014595 8.511482 -10.537296 15.112663 -8.790947l114.079254 30.179836c3.1699982 0.8386307 5.877228 2.902237 7.526108 5.736862c1.64888 2.8346176 2.1043549 6.2080536 1.2662201 9.378181l-12.640289 47.810555c-1.7453156 6.6014557 -8.511475 10.5372925 -15.112671 8.790939l-114.07925 -30.17984c-6.6011887 -1.7463455 -10.537643 -8.513588 -8.7923355 -15.115044z" fill-rule="evenodd"></path><path stroke="#f1c232" stroke-width="8.0" stroke-linejoin="round" stroke-linecap="butt" d="m90.00968 43.7718l0 0c1.7453156 -6.6014595 8.511482 -10.537296 15.112663 -8.790947l114.079254 30.179836c3.1699982 0.8386307 5.877228 2.902237 7.526108 5.736862c1.64888 2.8346176 2.1043549 6.2080536 1.2662201 9.378181l-12.640289 47.810555c-1.7453156 6.6014557 -8.511475 10.5372925 -15.112671 8.790939l-114.07925 -30.17984c-6.6011887 -1.7463455 -10.537643 -8.513588 -8.7923355 -15.115044z" fill-rule="evenodd"></path><path fill="#f1c232" d="m99.8963 79.21511l2.3396072 -14.412209l1.7173233 -6.495571l5.7400284 1.5185356l-1.7173157 6.4955673l-5.0736847 13.688904l-3.0059586 -0.79522705zm-3.037056 6.8414154l1.4018097 -5.3022003l5.3019714 1.4026489l-1.4018097 5.3022003l-5.3019714 -1.4026489zm25.249466 -0.9650955l-4.8186035 -1.274765q0.25646973 -1.0312042 0.31637573 -1.2577972q0.6190338 -2.341423 1.7887802 -3.6482162q1.1697464 -1.3067932 3.9951935 -2.5796356q2.8254395 -1.2728424 3.4343567 -1.7420883q0.93846893 -0.737648 1.2340088 -1.855484q0.4113617 -1.5559158 -0.5357361 -2.9863358q-0.9470978 -1.4304199 -3.0316315 -1.9818878q-2.0241165 -0.5354843 -3.6911163 0.26802063q-1.6630096 0.7884064 -2.7996216 3.0090637l-4.70417 -1.8909912q1.0909729 -3.331787 4.3876495 -4.981003q3.296669 -1.6492195 7.647011 -0.49832916q4.5618134 1.2068329 6.634659 4.3088913q2.0728455 3.1020508 1.2341461 6.2743073q-0.4632721 1.7522888 -1.8755798 3.0595703q-1.4123077 1.3072739 -5.370842 3.136963q-2.048111 0.96128845 -2.6796036 1.6993256q-0.63150024 0.7380371 -1.1652756 2.9403915zm-6.707657 5.8703613l1.4018097 -5.3022003l5.301979 1.4026489l-1.4018097 5.3021927l-5.301979 -1.4026413zm24.567345 2.119278l2.0927277 -7.9155273q-3.4212341 -2.0364761 -4.5761414 -4.637085q-1.154892 -2.6006088 -0.34814453 -5.6520157q0.8187103 -3.0967255 3.3224335 -4.680954q2.507721 -1.5993347 5.8392334 -1.0573883l0.49523926 -1.8731384l2.7491608 0.7272949l-0.495224 1.873146q2.899002 1.1386719 4.2190247 3.298088q1.3351288 2.163414 1.0827789 5.135208l-4.937027 -0.6434326q0.15301514 -2.3515701 -1.4670563 -3.6206207l-1.9529419 7.3868256q4.2080994 2.4224243 5.3202972 4.817787q1.1312866 2.3842468 0.32453918 5.4356537q-0.9025879 3.4139557 -3.5910492 5.2079086q-2.6884613 1.793953 -6.502838 1.3667068l-0.93055725 3.5196915l-2.7491608 -0.7272949l0.9065857 -3.429062q-3.1589203 -1.2559204 -4.6589813 -3.8347015q-1.4960785 -2.593895 -1.0725098 -6.4578247l5.0641327 0.7740326q-0.09727478 1.5905228 0.44197083 2.9130478q0.5432434 1.3074188 1.4235077 2.0736542zm5.243805 -19.834145q-1.2025299 0.08592987 -2.106781 0.81645966q-0.90426636 0.7305298 -1.195816 1.8332672q-0.26358032 0.996994 0.11299133 2.0178757q0.3765564 1.0208893 1.4603119 1.8732834l1.7292938 -6.540886zm-2.5625305 20.818245q1.472702 0.11483765 2.6394806 -0.69169617q1.1707764 -0.82164764 1.5461884 -2.2416077q0.33547974 -1.2689056 -0.18016052 -2.3750687q-0.49653625 -1.117279 -2.0605469 -2.048233l-1.9449615 7.3566055zm15.25116 0.4951172l2.3395996 -14.412201l1.7173309 -6.495575l5.7400208 1.5185394l-1.7173157 6.4955673l-5.0736847 13.688904l-3.005951 -0.7952347zm-3.0370636 6.841423l1.4018097 -5.3022003l5.3019867 1.4026489l-1.401825 5.3022003l-5.3019714 -1.4026489zm37.38156 6.268944l-4.3037415 3.2576447q-2.0489044 -1.78656 -3.688919 -4.3862q-2.076065 1.0670242 -4.1559296 1.2925949q-2.0798798 0.22556305 -4.6931 -0.4657669q-5.166031 -1.366684 -7.0084534 -4.973465q-1.4139404 -2.78228 -0.6391449 -5.712837q0.7028961 -2.6586533 2.8480835 -4.353897q2.1491852 -1.7103424 5.7064514 -2.4501648q-0.9615021 -2.0484085 -1.2871704 -3.750824q-0.3065796 -1.7135162 0.052856445 -3.073059q0.6669464 -2.5226974 3.135254 -3.7283936q2.4722748 -1.2208099 6.188202 -0.23775482q3.5950623 0.9510803 5.1168365 3.3254929q1.5408783 2.3633118 0.8419647 5.006851q-0.4433136 1.6767654 -1.8396301 2.9236145q-1.3963318 1.2468567 -4.950836 2.342987l2.509964 6.0946274q0.99923706 -1.028656 2.0089264 -2.8303452l4.500839 2.3544083q-1.384903 2.3650894 -2.2250977 3.4034882q-0.8401947 1.0384064 -1.6560822 1.6791763q0.67155457 1.066597 1.8127594 2.435234q1.1452026 1.3535309 1.7259674 1.8465881zm-10.478027 -18.869865l1.7265625 -0.72309875q1.9095459 -0.8039932 2.2290497 -2.0124664q0.26757812 -1.0121002 -0.31507874 -1.9258881q-0.5635681 -0.9248886 -1.8626251 -1.2685623q-1.2688599 -0.33567047 -2.1616516 0.10696411q-0.87368774 0.43152618 -1.0933533 1.262352q-0.25958252 0.9818878 0.5774231 2.7064362l0.89967346 1.8542633zm-3.5910492 5.2079086q-2.0713654 0.43793488 -3.3251495 1.5123825q-1.2497864 1.0593491 -1.6092224 2.4188843q-0.45529175 1.722084 0.37495422 3.105423q0.8342438 1.3682404 2.722412 1.8677597q1.2537384 0.3316803 2.5295563 0.1519928q1.2798004 -0.19478607 2.9388123 -0.96808624l-3.631363 -8.088356zm20.527893 11.3461685l2.3396149 -14.412201l1.7173157 -6.495575l5.7400208 1.5185394l-1.7173157 6.4955673l-5.0736694 13.688904l-3.0059662 -0.7952347zm-3.0370636 6.841423l1.4018097 -5.3022003l5.3019867 1.4026489l-1.4018097 5.3021927l-5.3019867 -1.4026413z" fill-rule="nonzero"></path><path fill="#fff2cc" d="m435.63306 313.6752l0 0c-1.3771362 -6.688446 2.9282227 -13.228455 9.616241 -14.607544l94.61514 -19.509827c3.211731 -0.66226196 6.5545654 -0.021484375 9.293213 1.7814026c2.7386475 1.8028564 4.6487427 4.620117 5.3100586 7.8320312l9.973633 48.44046c1.3771362 6.6884155 -2.9282227 13.228455 -9.616272 14.607513l-94.61514 19.509827c-6.688019 1.3790894 -13.226105 -2.9249878 -14.603241 -9.613403z" fill-rule="evenodd"></path><path stroke="#f1c232" stroke-width="8.0" stroke-linejoin="round" stroke-linecap="butt" d="m435.63306 313.6752l0 0c-1.3771362 -6.688446 2.9282227 -13.228455 9.616241 -14.607544l94.61514 -19.509827c3.211731 -0.66226196 6.5545654 -0.021484375 9.293213 1.7814026c2.7386475 1.8028564 4.6487427 4.620117 5.3100586 7.8320312l9.973633 48.44046c1.3771362 6.6884155 -2.9282227 13.228455 -9.616272 14.607513l-94.61514 19.509827c-6.688019 1.3790894 -13.226105 -2.9249878 -14.603241 -9.613403z" fill-rule="evenodd"></path><path fill="#f1c232" d="m469.36353 339.90698q2.629486 2.2337646 6.7001038 1.3943787q4.085907 -0.8425293 5.6066895 -3.9161072q1.5361023 -3.0767212 0.53723145 -7.9281006q-1.0083313 -4.897278 -3.6441345 -7.161621q-2.6204834 -2.2674866 -6.6757812 -1.4312744q-4.0706177 0.83935547 -5.6094055 3.9804688q-1.5387878 3.1411133 -0.5367737 8.007782q0.9925842 4.8207397 3.6220703 7.054474zm7.554474 5.6214294q-6.32016 1.3032532 -10.78064 -1.7654419q-4.4483337 -3.0871277 -5.837921 -9.836182q-1.3990479 -6.7949524 1.4890747 -11.362976q2.8881226 -4.5680237 9.208282 -5.8712463q6.3354797 -1.306366 10.78064 1.7654419q4.442047 3.0565186 5.841095 9.851501q1.3833008 6.718445 -1.4985352 11.317047q-2.881836 4.598633 -9.201996 5.9018555zm23.54898 -12.035004q2.629486 2.2337341 6.7001038 1.3943787q4.085907 -0.8425293 5.60672 -3.9161072q1.5360718 -3.0767517 0.5371704 -7.9281006q-1.0083008 -4.897278 -3.644104 -7.161621q-2.6204834 -2.267517 -6.6757812 -1.4313049q-4.0706177 0.83935547 -5.6094055 3.9804688q-1.5387878 3.1411133 -0.5367737 8.007782q0.9925842 4.8207703 3.6220703 7.0545044zm7.554474 5.6214294q-6.32016 1.3032227 -10.78064 -1.7654419q-4.4483337 -3.0871277 -5.837921 -9.836182q-1.3990784 -6.794983 1.4890747 -11.362976q2.8881226 -4.5680237 9.208282 -5.8712463q6.335449 -1.3063965 10.78067 1.7654419q4.4420166 3.0565186 5.8410645 9.851471q1.3833008 6.718445 -1.4985352 11.317078q-2.881836 4.598633 -9.201996 5.9018555zm18.503632 -4.2302856l-5.7695312 -28.021576l16.573242 -3.41745l0.66082764 4.1393433l-11.247742 2.3193054l1.6384888 7.958069l10.696838 -2.205719l0.8413696 4.0861816l-10.696838 2.2056885l2.4451904 11.875916l-5.1418457 1.0602417z" fill-rule="nonzero"></path><path fill="#fff2cc" d="m177.86876 172.35721l0 0c0 -6.827606 5.5348663 -12.362457 12.362457 -12.362457l176.18849 0c3.278717 0 6.4231567 1.302475 8.741577 3.6208801c2.31839 2.3184052 3.6208801 5.462845 3.6208801 8.741577l0 49.44832c0 6.827591 -5.5348816 12.362457 -12.362457 12.362457l-176.18849 0c-6.827591 0 -12.362457 -5.5348663 -12.362457 -12.362457z" fill-rule="evenodd"></path><path stroke="#f1c232" stroke-width="8.0" stroke-linejoin="round" stroke-linecap="butt" d="m177.86876 172.35721l0 0c0 -6.827606 5.5348663 -12.362457 12.362457 -12.362457l176.18849 0c3.278717 0 6.4231567 1.302475 8.741577 3.6208801c2.31839 2.3184052 3.6208801 5.462845 3.6208801 8.741577l0 49.44832c0 6.827591 -5.5348816 12.362457 -12.362457 12.362457l-176.18849 0c-6.827591 0 -12.362457 -5.5348663 -12.362457 -12.362457z" fill-rule="evenodd"></path><path fill="#f1c232" d="m214.25124 211.48137l0 -28.609375l5.625 0q1.515625 2.375 6.1875 9.609375q4.671875 7.21875 5.6875 8.78125q0.28125 0.453125 1.0 1.515625q0.71875 1.0625 1.0 1.515625q-0.125 -6.703125 -0.125 -6.953125l0 -14.46875l4.8125 0l0 28.609375l-5.703125 0l-12.90625 -20.125l-0.9375 -1.53125q0.15625 5.15625 0.15625 7.234375l0 14.421875l-4.796875 0zm36.867188 -6.625q2.125 2.71875 6.2812653 2.71875q4.171875 0 6.28125 -2.703125q2.125 -2.703125 2.125 -7.65625q0 -5.0 -2.125 -7.75q-2.109375 -2.75 -6.25 -2.75q-4.1562653 0 -6.2968903 2.765625q-2.140625 2.765625 -2.140625 7.734375q0 4.921875 2.125 7.640625zm6.2656403 7.03125q-6.4531403 0 -10.20314 -3.90625q-3.734375 -3.921875 -3.734375 -10.8125q0 -6.9375 3.75 -10.828125q3.75 -3.890625 10.20314 -3.890625q6.46875 0 10.203125 3.90625q3.734375 3.890625 3.734375 10.828125q0 6.859375 -3.75 10.78125q-3.75 3.921875 -10.203125 3.921875zm25.492188 -7.03125q2.125 2.71875 6.28125 2.71875q4.171875 0 6.28125 -2.703125q2.125 -2.703125 2.125 -7.65625q0 -5.0 -2.125 -7.75q-2.109375 -2.75 -6.25 -2.75q-4.15625 0 -6.296875 2.765625q-2.140625 2.765625 -2.140625 7.734375q0 4.921875 2.125 7.640625zm6.265625 7.03125q-6.453125 0 -10.203125 -3.90625q-3.734375 -3.921875 -3.734375 -10.8125q0 -6.9375 3.75 -10.828125q3.75 -3.890625 10.203125 -3.890625q6.46875 0 10.203125 3.90625q3.734375 3.890625 3.734375 10.828125q0 6.859375 -3.75 10.78125q-3.75 3.921875 -10.203125 3.921875zm25.492157 -7.03125q2.125 2.71875 6.28125 2.71875q4.171875 0 6.28125 -2.703125q2.125 -2.703125 2.125 -7.65625q0 -5.0 -2.125 -7.75q-2.109375 -2.75 -6.25 -2.75q-4.15625 0 -6.296875 2.765625q-2.140625 2.765625 -2.140625 7.734375q0 4.921875 2.125 7.640625zm6.265625 7.03125q-6.453125 0 -10.203125 -3.90625q-3.7343445 -3.921875 -3.7343445 -10.8125q0 -6.9375 3.7499695 -10.828125q3.75 -3.890625 10.203125 -3.890625q6.46875 0 10.203125 3.90625q3.734375 3.890625 3.734375 10.828125q0 6.859375 -3.75 10.78125q-3.75 3.921875 -10.203125 3.921875zm19.648438 -9.171875l-1.65625 -13.9375l0 -5.78125l4.703125 0l0 5.78125l-1.75 13.9375l-1.296875 0zm0.609375 9.125q-1.265625 0 -2.15625 -0.875q-0.875 -0.890625 -0.875 -2.109375q0 -1.21875 0.875 -2.109375q0.890625 -0.90625 2.15625 -0.90625q1.25 0 2.109375 0.90625q0.875 0.890625 0.875 2.109375q0 1.21875 -0.875 2.109375q-0.859375 0.875 -2.109375 0.875z" fill-rule="nonzero"></path><path fill="#fff2cc" d="m336.54907 51.132156l0 0c-1.3249207 -6.697132 3.0299988 -13.200794 9.72702 -14.526337l115.77948 -22.916317c3.2160034 -0.63654804 6.55307 0.030555725 9.277039 1.8545561c2.7239685 1.8240013 4.6116943 4.655487 5.2479553 7.871561l9.595703 48.503456c1.3249512 6.6971283 -3.0299988 13.20079 -9.72699 14.526329l-115.77948 22.91632c-6.6970215 1.3255463 -13.200073 -3.028984 -14.525024 -9.72612z" fill-rule="evenodd"></path><path stroke="#f1c232" stroke-width="8.0" stroke-linejoin="round" stroke-linecap="butt" d="m336.54907 51.132156l0 0c-1.3249207 -6.697132 3.0299988 -13.200794 9.72702 -14.526337l115.77948 -22.916317c3.2160034 -0.63654804 6.55307 0.030555725 9.277039 1.8545561c2.7239685 1.8240013 4.6116943 4.655487 5.2479553 7.871561l9.595703 48.503456c1.3249512 6.6971283 -3.0299988 13.20079 -9.72699 14.526329l-115.77948 22.91632c-6.6970215 1.3255463 -13.200073 -3.028984 -14.525024 -9.72612z" fill-rule="evenodd"></path><path fill="#f1c232" d="m385.562 81.72585q-5.517975 1.0921707 -8.927032 -1.0842056q-3.3967896 -2.1947403 -4.3853455 -7.1916428l-3.5539856 -17.964317l5.2113953 -1.031498l3.4660645 17.51981q0.694397 3.5100937 2.4382935 4.837387q1.743866 1.3272858 5.008667 0.6810837q3.2034607 -0.6340637 4.3105164 -2.5256424q1.1193848 -1.909935 0.42495728 -5.4200363l-3.4630127 -17.504482l5.1960754 -1.0284615l3.5630798 18.010307q0.97946167 4.95092 -1.3869629 8.286369q-2.3694458 3.3201218 -7.90271 4.415329zm29.689636 -5.8764954q-6.4223022 1.271164 -10.803772 -1.8754883q-4.3692017 -3.1650162 -5.7004395 -9.893974q-0.84298706 -4.2611656 0.2001648 -7.8444023q1.0431824 -3.5832367 3.9624329 -6.0564957q2.9192505 -2.473259 7.379608 -3.3560982q5.1194153 -1.0132904 9.204071 0.47188187l-0.91882324 4.2116814q-3.8523865 -1.1966591 -7.3623962 -0.501915q-4.245758 0.84036636 -6.137024 4.081768q-1.8912659 3.2414017 -0.9512024 7.9930573q0.93395996 4.720997 3.63797 7.03693q2.716278 2.2975693 6.8854065 1.472374q2.6823425 -0.53092194 4.7073975 -1.8077927l-1.2887573 -6.514366l-5.8858337 1.1649857l-0.77593994 -4.083294l10.72934 -2.1236687l2.6806335 13.549881q-2.3934326 1.5886993 -4.620117 2.5709915q-2.2144165 0.9639282 -4.9427185 1.5039444zm15.486359 -3.4793625l-5.5523376 -28.065418l5.1807556 -1.0254288l2.2682495 11.465282l12.691284 -2.5119934l-2.2682495 -11.465286l5.1960754 -1.0284615l5.5523376 28.065418l-5.1960754 1.0284653l-2.471405 -12.492256l-12.691284 2.5119972l2.471405 12.492252l-5.1807556 1.0254288z" fill-rule="nonzero"></path><path fill="#fff2cc" d="m35.230663 262.10513l0 0c3.0267563 -6.1201935 10.441574 -8.627426 16.561462 -5.600067l105.05052 51.966064c2.9388733 1.4537964 5.1799774 4.015564 6.230301 7.121765c1.0503082 3.1061707 0.82380676 6.50235 -0.62968445 9.441376l-21.921051 44.325012c-3.0267487 6.120178 -10.441574 8.627411 -16.561462 5.6000366l-105.05052 -51.966064l0 0c-6.1198893 -3.0273743 -8.627369 -10.442932 -5.6006145 -16.56311z" fill-rule="evenodd"></path><path stroke="#f1c232" stroke-width="8.0" stroke-linejoin="round" stroke-linecap="butt" d="m35.230663 262.10513l0 0c3.0267563 -6.1201935 10.441574 -8.627426 16.561462 -5.600067l105.05052 51.966064c2.9388733 1.4537964 5.1799774 4.015564 6.230301 7.121765c1.0503082 3.1061707 0.82380676 6.50235 -0.62968445 9.441376l-21.921051 44.325012c-3.0267487 6.120178 -10.441574 8.627411 -16.561462 5.6000366l-105.05052 -51.966064l0 0c-6.1198893 -3.0273743 -8.627369 -10.442932 -5.6006145 -16.56311z" fill-rule="evenodd"></path><path fill="#f1c232" d="m39.952374 303.3667l3.3892403 1.6765747q4.397606 2.1753845 7.8164024 1.0076904q3.4397316 -1.1747437 5.6216125 -5.5865784q2.3411942 -4.7339783 1.0340996 -8.047699q-1.2930908 -3.3067932 -6.0548286 -5.662323l-2.8850555 -1.4271545l-8.921471 18.03949zm-6.6248436 1.4469604l12.682617 -25.644623l7.4227104 3.6718445q3.361229 1.6627197 5.641239 3.7493591q2.2800064 2.0866394 3.4298553 4.5904236q1.1567764 2.4897766 0.9669914 5.446533q-0.1828537 2.942749 -1.7621231 6.136078q-3.0754128 6.2185974 -8.491169 7.7232666q-5.394825 1.4976196 -12.033253 -1.7862549l-7.8568687 -3.8866272zm23.661644 11.7048645l22.135918 -21.003174l5.1678925 2.5564575l-3.3970718 30.272827l-4.8737793 -2.4109192l1.0530548 -8.509003l-8.97728 -4.440857l-6.150921 5.9871826l-4.9578133 -2.4525146zm14.04467 -6.4752502l6.582405 3.2561646q1.8429337 -11.656982 1.9111404 -12.041626l-8.493546 8.785461zm12.449516 19.58133l12.717247 -25.71466l9.509476 4.7041016q1.9327087 0.9560547 3.2711792 1.8447876q1.3454056 0.87472534 2.4052963 1.9743042q1.0598907 1.0995789 1.4702988 2.278778q0.4104004 1.1792297 0.24224854 2.6824036q-0.16815186 1.5031433 -1.0201263 3.2258606q-2.5282135 5.1121216 -7.9604645 4.4296265q0.40499115 1.5426025 0.37862396 5.1206055l-0.09013367 9.804626l-5.1818924 -2.5633545l0.32074738 -8.191376q0.08551788 -4.4377747 0.01184845 -5.310974q-0.28718567 -0.15948486 -1.9677963 -0.9908447l-3.9566727 -2.0095825l-5.458168 11.036591l-4.6917114 -2.3208923zm17.064034 -9.514038q2.7309952 1.3509521 4.3993683 0.9734497q1.675293 -0.39154053 2.7419891 -2.5484314q0.93509674 -1.8907776 0.15302277 -3.375885q-0.7611313 -1.4921875 -3.240036 -2.7184448l-5.447998 -2.6949768l-3.8373337 7.7592163q0.26609802 0.13162231 2.5980225 1.3026123q2.3528595 1.1639099 2.632965 1.3024597zm7.465927 21.648438l12.682617 -25.644653l5.0418396 2.49411q0.30565643 2.8008728 1.2861633 11.357056q0.987442 8.542145 1.2051086 10.393066q0.051223755 0.5308533 0.22445679 1.8019409q0.17321777 1.2710876 0.22444153 1.8019714q2.8594666 -6.0639343 2.9702911 -6.288025l6.4140472 -12.96936l4.313568 2.1338196l-12.682617 25.644623l-5.111862 -2.528717l-2.646759 -23.762024l-0.16149902 -1.7882385q-2.145729 4.6911926 -3.0669632 6.553955l-6.393265 12.927368l-4.299568 -2.126892z" fill-rule="nonzero"></path><path fill="#fff2cc" d="m192.47507 333.9005l0 0c0 -6.827606 5.534851 -12.362457 12.362457 -12.362457l176.18848 0c3.278717 0 6.4231567 1.3024597 8.741577 3.6208801c2.31839 2.3184204 3.6208801 5.46286 3.6208801 8.741577l0 49.448334c0 6.8275757 -5.534851 12.362427 -12.362457 12.362427l-176.18848 0c-6.827606 0 -12.362457 -5.534851 -12.362457 -12.362427z" fill-rule="evenodd"></path><path stroke="#f1c232" stroke-width="8.0" stroke-linejoin="round" stroke-linecap="butt" d="m192.47507 333.9005l0 0c0 -6.827606 5.534851 -12.362457 12.362457 -12.362457l176.18848 0c3.278717 0 6.4231567 1.3024597 8.741577 3.6208801c2.31839 2.3184204 3.6208801 5.46286 3.6208801 8.741577l0 49.448334c0 6.8275757 -5.534851 12.362427 -12.362457 12.362427l-176.18848 0c-6.827606 0 -12.362457 -5.534851 -12.362457 -12.362427z" fill-rule="evenodd"></path><path fill="#f1c232" d="m247.0138 366.39966q2.125 2.71875 6.28125 2.71875q4.171875 0 6.28125 -2.703125q2.125 -2.703125 2.125 -7.65625q0 -5.0 -2.125 -7.75q-2.109375 -2.75 -6.25 -2.75q-4.15625 0 -6.296875 2.765625q-2.140625 2.765625 -2.140625 7.734375q0 4.921875 2.125 7.640625zm6.265625 7.03125q-6.453125 0 -10.203125 -3.90625q-3.734375 -3.921875 -3.734375 -10.8125q0 -6.9375 3.75 -10.828125q3.75 -3.890625 10.203125 -3.890625q6.46875 0 10.203125 3.90625q3.734375 3.890625 3.734375 10.828125q0 6.859375 -3.75 10.78125q-3.75 3.921875 -10.203125 3.921875zm25.492188 -7.03125q2.125 2.71875 6.28125 2.71875q4.171875 0 6.28125 -2.703125q2.125 -2.703125 2.125 -7.65625q0 -5.0 -2.125 -7.75q-2.109375 -2.75 -6.25 -2.75q-4.15625 0 -6.296875 2.765625q-2.140625 2.765625 -2.140625 7.734375q0 4.921875 2.125 7.640625zm6.265625 7.03125q-6.453125 0 -10.203125 -3.90625q-3.734375 -3.921875 -3.734375 -10.8125q0 -6.9375 3.75 -10.828125q3.75 -3.890625 10.203125 -3.890625q6.46875 0 10.203125 3.90625q3.734375 3.890625 3.734375 10.828125q0 6.859375 -3.75 10.78125q-3.75 3.921875 -10.203125 3.921875zm18.835938 -0.40625l0 -28.6875l9.53125 0q3.375 0 5.78125 0.875q2.40625 0.859375 3.796875 2.8125q1.390625 1.953125 1.390625 4.90625q0 2.046875 -0.53125 3.640625q-0.515625 1.59375 -1.734375 2.890625q-1.203125 1.296875 -3.40625 2.0q-2.1875 0.703125 -5.296875 0.703125q-2.65625 0 -4.3125 -0.15625l0 11.015625l-5.21875 0zm8.96875 -14.6875q1.609375 0 2.8125 -0.3125q1.203125 -0.3125 1.875 -0.796875q0.671875 -0.5 1.078125 -1.21875q0.40625 -0.71875 0.53125 -1.390625q0.125 -0.671875 0.125 -1.515625q0 -2.359375 -1.53125 -3.59375q-1.515625 -1.234375 -4.296875 -1.234375l-4.34375 0l0 10.015625q0.234375 0.046875 3.75 0.046875zm23.503906 15.078125q-5.171875 0 -9.265625 -2.390625l1.28125 -4.1875q1.84375 1.015625 4.0 1.640625q2.15625 0.625 4.203125 0.625q2.515625 0 3.796875 -1.078125q1.296875 -1.09375 1.296875 -3.125q0 -2.703125 -3.59375 -3.734375q-0.25 -0.078125 -1.421875 -0.421875q-1.171875 -0.34375 -2.203125 -0.65625q-1.015625 -0.328125 -1.46875 -0.5q-5.765625 -2.03125 -5.765625 -7.578125q0 -3.890625 2.765625 -6.0q2.765625 -2.109375 7.34375 -2.109375q5.171875 0 8.921875 2.125l-1.609375 3.875q-3.828125 -1.71875 -7.109375 -1.71875q-2.359375 0 -3.5625 0.828125q-1.203125 0.828125 -1.28125 2.765625q0 2.375 2.375 3.109375q0.46875 0.171875 2.296875 0.765625q1.84375 0.578125 2.390625 0.75q3.921875 1.296875 5.609375 3.21875q1.6875 1.90625 1.6875 5.3125q0 4.09375 -2.890625 6.296875q-2.890625 2.1875 -7.796875 2.1875z" fill-rule="nonzero"></path></g></svg>

